<?xml version="1.0"?>
<svg xmlns="http://www.w3.org/2000/svg" viewBox="0 0 16 16">
    <path style="line-height:normal;text-indent:0;text-align:start;text-decoration-line:none;text-decoration-style:solid;text-decoration-color:#000;text-transform:none;block-progression:tb;isolation:auto;mix-blend-mode:normal" d="M 12.503906 2.0039062 C 10.418906 2.0039062 8.8267841 2.5226537 7.9257812 3.5742188 L 7.9238281 3.5761719 L 5.8945312 6.0039062 L 5.5039062 6.0039062 C 4.0787613 6.0039062 3.0426691 6.2641145 2.3574219 6.5351562 C 1.6721746 6.8061981 1.3007813 7.1171875 1.3007812 7.1171875 L 0.8984375 7.4667969 L 8.3652344 15.070312 L 8.7207031 14.734375 C 8.7207031 14.734375 9.0835282 14.378708 9.3945312 13.697266 C 9.7055345 13.015823 10.003906 11.973727 10.003906 10.503906 L 10.003906 10.103516 L 12.429688 8.0820312 L 12.431641 8.0800781 C 13.483206 7.1790754 14.003906 5.5889062 14.003906 3.5039062 L 14.003906 2.0039062 L 12.503906 2.0039062 z M 12.503906 3.0039062 L 13.003906 3.0039062 L 13.003906 3.5039062 C 13.003906 5.4189063 12.503685 6.7013152 11.78125 7.3203125 L 6.5332031 11.695312 L 4.3066406 9.4667969 L 8.6894531 4.2207031 C 9.3095877 3.5001446 10.591985 3.0039063 12.503906 3.0039062 z M 11.003906 4.0039062 A 1 1 0 0 0 10.003906 5.0039062 A 1 1 0 0 0 11.003906 6.0039062 A 1 1 0 0 0 12.003906 5.0039062 A 1 1 0 0 0 11.003906 4.0039062 z M 5.0429688 7.0253906 L 3.5800781 8.7734375 L 2.4433594 7.6152344 C 2.5614219 7.5506698 2.5171549 7.5476726 2.7265625 7.4648438 C 3.2239257 7.2681173 3.9933649 7.0742809 5.0429688 7.0253906 z M 8.9824219 10.955078 C 8.9288775 12.032877 8.7069904 12.797754 8.4863281 13.28125 C 8.3828924 13.507889 8.3763374 13.466733 8.3007812 13.580078 L 7.1894531 12.449219 L 8.9824219 10.955078 z M 3.0039062 10.996094 L 1.0039062 14.996094 L 5.0039062 12.996094 L 3.0039062 10.996094 z" font-weight="400" font-family="sans-serif" white-space="normal" overflow="visible"/>
</svg>
