<?xml version="1.0" encoding="iso-8859-1"?>
<!-- Generator: Adobe Illustrator 21.1.0, SVG Export Plug-In . SVG Version: 6.00 Build 0)  -->
<svg xmlns="http://www.w3.org/2000/svg" xmlns:xlink="http://www.w3.org/1999/xlink" version="1.1" id="Layer_1" x="0px" y="0px" viewBox="0 0 50 50" style="enable-background:new 0 0 50 50;" xml:space="preserve" width="30px" height="30px">
<circle style="fill:none;stroke:#000000;stroke-width:2;stroke-miterlimit:10;" cx="25" cy="25" r="22"/>
<path d="M36.073,14.016c-0.137,4.192-2.216,8.399-6.087,12.27l-0.042,0.042l-0.039,0.044c-0.81,0.912-1.408,1.486-2.133,2.05  L27,29.022V30c0,2.853-0.597,4.991-2,6.94V33v-2.775l-2.632,0.877l-1.827,0.609l-2.252-2.252l0.609-1.827L19.775,25H17h-3.94  c1.949-1.403,4.087-2,6.94-2h0.898l0.597-0.671c0.76-0.855,1.435-1.53,2.219-2.314C27.554,16.174,31.604,14.207,36.073,14.016   M38,12c-0.4,0-0.8,0-1.2,0c-4.7,0-9.6,1.7-14.5,6.6c-0.8,0.8-1.5,1.5-2.3,2.4c-4.1,0-7.1,1.1-10,4c-0.6,0.6-1.4,1.4-2,2  c2.3,0,5.9,0,9,0l-1,3l4,4l3-1c0,3.3,0,7.1,0,9c0.7-0.7,1.4-1.4,2-2c2.9-2.9,4-5.9,4-10c0.9-0.7,1.6-1.4,2.4-2.3  C36.7,22.4,38.5,16.9,38,12L38,12z"/>
<circle cx="29" cy="21" r="2"/>
<path d="M17.429,34.429c-0.94,0.572-1.761,0.611-2.419,0.538c-0.072-0.646,0.019-1.449,0.59-2.367l-0.826-0.826  c-0.202,0.16-0.396,0.325-0.564,0.493c-1.6,1.6-2.3,3.7-2.2,5.7c2,0.2,4.1-0.5,5.7-2.1c0.183-0.183,0.363-0.398,0.537-0.62  L17.429,34.429z"/>
</svg>
